# xmcd
#
# Track frame offsets: 
#        150
#        20624
#        31985
#        44586
#        65576
#        78645
#        96841
#        112885
#        131260
#        150569
#        170475
#        189113
#
# Disc length: 2801 seconds
#
# Revision: 0
# Processed by: cddbd v1.4PL0 Copyright (c) Steve Scherf et al.
# Submitted via: ExactAudioCopy v0.95a4
#
DISCID=930aef0c
DTITLE=Garth Brooks - Scarecrow
DYEAR=1900
DGENRE=Pop
TTITLE0=Why Ain't I Running
TTITLE1=Beer Run
TTITLE2=Wrapped Up In You
TTITLE3=Storm
TTITLE4=Thicker Than Blood
TTITLE5=Big Money
TTITLE6=Squeeze Me In
TTITLE7=Mr Midnight
TTITLE8=Pushing Up Daisies
TTITLE9=Rodeo Or Mexico
TTITLE10=Don't Cross The River
TTITLE11=When You Come Back To Me Again
EXTD=
EXTT0=
EXTT1=
EXTT2=
EXTT3=
EXTT4=
EXTT5=
EXTT6=
EXTT7=
EXTT8=
EXTT9=
EXTT10=
EXTT11=
PLAYORDER=
